<svg width="640" height="480" xmlns="http://www.w3.org/2000/svg">
<rect width="640" height="480" fill="#12121e" rx="12"/>
<text x="320" y="28" fill="#00bcd4" font-size="14" font-weight="600" text-anchor="middle"  font-family="system-ui,-apple-system,sans-serif">What SearchLens hides on Google Search</text>
<rect x="10" y="44" width="460" height="12" rx="4" fill="#888" fill-opacity="0.3" stroke="#888" stroke-width="1.5" stroke-opacity="0.7"/><rect x="478" y="40" width="93" height="20" rx="10" fill="#888" fill-opacity="0.85"/><text x="524" y="53" fill="white" font-size="10" font-weight="600" text-anchor="middle" font-family="system-ui,-apple-system,sans-serif">slim_appbar</text><text x="524" y="71" fill="#888" font-size="9" text-anchor="middle" font-family="system-ui,-apple-system,sans-serif" fill-opacity="0.85">always hidden</text>
<rect x="10" y="62" width="460" height="58" rx="4" fill="#ff5252" fill-opacity="0.2" stroke="#ff5252" stroke-width="1.5" stroke-opacity="0.7"/><rect x="478" y="81" width="79" height="20" rx="10" fill="#ff5252" fill-opacity="0.85"/><text x="517" y="94" fill="white" font-size="10" font-weight="600" text-anchor="middle" font-family="system-ui,-apple-system,sans-serif">Sponsored</text><text x="517" y="112" fill="#ff5252" font-size="9" text-anchor="middle" font-family="system-ui,-apple-system,sans-serif" fill-opacity="0.85">Hide sponsored toggle</text>
<rect x="10" y="132" width="460" height="48" rx="4" fill="#1e2d1e" fill-opacity="0.5" stroke="#4caf50" stroke-width="1" stroke-opacity="0.4"/>
<rect x="20" y="140" width="180" height="9" rx="3" fill="#4caf50" fill-opacity="0.5"/>
<rect x="20" y="155" width="320" height="7" rx="3" fill="#2e3d2e" fill-opacity="0.8"/>
<rect x="20" y="167" width="220" height="7" rx="3" fill="#2e3d2e" fill-opacity="0.8"/>
<rect x="10" y="188" width="460" height="48" rx="4" fill="#1e2d1e" fill-opacity="0.5" stroke="#4caf50" stroke-width="1" stroke-opacity="0.4"/>
<rect x="20" y="196" width="180" height="9" rx="3" fill="#4caf50" fill-opacity="0.5"/>
<rect x="20" y="211" width="320" height="7" rx="3" fill="#2e3d2e" fill-opacity="0.8"/>
<rect x="20" y="223" width="220" height="7" rx="3" fill="#2e3d2e" fill-opacity="0.8"/>
<rect x="10" y="244" width="460" height="48" rx="4" fill="#1e2d1e" fill-opacity="0.5" stroke="#4caf50" stroke-width="1" stroke-opacity="0.4"/>
<rect x="20" y="252" width="180" height="9" rx="3" fill="#4caf50" fill-opacity="0.5"/>
<rect x="20" y="267" width="320" height="7" rx="3" fill="#2e3d2e" fill-opacity="0.8"/>
<rect x="20" y="279" width="220" height="7" rx="3" fill="#2e3d2e" fill-opacity="0.8"/>
<text x="16" y="256" fill="#4caf50" font-size="10" font-family="system-ui,-apple-system,sans-serif" fill-opacity="0.7">Regular results — always visible</text>
<rect x="10" y="302" width="460" height="50" rx="4" fill="#42a5f5" fill-opacity="0.2" stroke="#42a5f5" stroke-width="1.5" stroke-opacity="0.7"/><rect x="478" y="317" width="58" height="20" rx="10" fill="#42a5f5" fill-opacity="0.85"/><text x="507" y="330" fill="white" font-size="10" font-weight="600" text-anchor="middle" font-family="system-ui,-apple-system,sans-serif">Images</text><text x="507" y="348" fill="#42a5f5" font-size="9" text-anchor="middle" font-family="system-ui,-apple-system,sans-serif" fill-opacity="0.85">.Lv2Cle toggle</text>
<rect x="18" y="312" width="62" height="32" rx="3" fill="#42a5f5" fill-opacity="0.2"/>
<rect x="90" y="312" width="62" height="32" rx="3" fill="#42a5f5" fill-opacity="0.2"/>
<rect x="162" y="312" width="62" height="32" rx="3" fill="#42a5f5" fill-opacity="0.2"/>
<rect x="234" y="312" width="62" height="32" rx="3" fill="#42a5f5" fill-opacity="0.2"/>
<rect x="306" y="312" width="62" height="32" rx="3" fill="#42a5f5" fill-opacity="0.2"/>
<rect x="378" y="312" width="62" height="32" rx="3" fill="#42a5f5" fill-opacity="0.2"/>
<rect x="10" y="360" width="460" height="68" rx="4" fill="#ff9800" fill-opacity="0.2" stroke="#ff9800" stroke-width="1.5" stroke-opacity="0.7"/><rect x="478" y="384" width="72" height="20" rx="10" fill="#ff9800" fill-opacity="0.85"/><text x="514" y="397" fill="white" font-size="10" font-weight="600" text-anchor="middle" font-family="system-ui,-apple-system,sans-serif">Products</text><text x="514" y="415" fill="#ff9800" font-size="9" text-anchor="middle" font-family="system-ui,-apple-system,sans-serif" fill-opacity="0.85">Hide products toggle</text>
<rect x="18" y="370" width="98" height="50" rx="3" fill="#ff9800" fill-opacity="0.18"/>
<rect x="24" y="376" width="86" height="26" rx="2" fill="#ff9800" fill-opacity="0.12"/>
<rect x="24" y="406" width="60" height="7" rx="2" fill="#ff9800" fill-opacity="0.28"/>
<rect x="126" y="370" width="98" height="50" rx="3" fill="#ff9800" fill-opacity="0.18"/>
<rect x="132" y="376" width="86" height="26" rx="2" fill="#ff9800" fill-opacity="0.12"/>
<rect x="132" y="406" width="60" height="7" rx="2" fill="#ff9800" fill-opacity="0.28"/>
<rect x="234" y="370" width="98" height="50" rx="3" fill="#ff9800" fill-opacity="0.18"/>
<rect x="240" y="376" width="86" height="26" rx="2" fill="#ff9800" fill-opacity="0.12"/>
<rect x="240" y="406" width="60" height="7" rx="2" fill="#ff9800" fill-opacity="0.28"/>
<rect x="342" y="370" width="98" height="50" rx="3" fill="#ff9800" fill-opacity="0.18"/>
<rect x="348" y="376" width="86" height="26" rx="2" fill="#ff9800" fill-opacity="0.12"/>
<rect x="348" y="406" width="60" height="7" rx="2" fill="#ff9800" fill-opacity="0.28"/>
<text x="492" y="43" fill="#555" font-size="9" font-weight="600" text-anchor="start" letter-spacing="1" font-family="system-ui,-apple-system,sans-serif">LEGEND</text>
<rect x="492" y="55" width="12" height="12" rx="3" fill="#888" fill-opacity="0.85"/>
<text x="510" y="65" fill="#e0e0e0" font-size="11" font-weight="600" text-anchor="start"  font-family="system-ui,-apple-system,sans-serif">slim_appbar</text>
<text x="510" y="77" fill="#555" font-size="9" font-weight="normal" text-anchor="start"  font-family="system-ui,-apple-system,sans-serif">Always hidden</text>
<rect x="492" y="99" width="12" height="12" rx="3" fill="#ff5252" fill-opacity="0.85"/>
<text x="510" y="109" fill="#e0e0e0" font-size="11" font-weight="600" text-anchor="start"  font-family="system-ui,-apple-system,sans-serif">Sponsored</text>
<text x="510" y="121" fill="#555" font-size="9" font-weight="normal" text-anchor="start"  font-family="system-ui,-apple-system,sans-serif">Toggle: Hide sponsored</text>
<rect x="492" y="143" width="12" height="12" rx="3" fill="#4caf50" fill-opacity="0.85"/>
<text x="510" y="153" fill="#e0e0e0" font-size="11" font-weight="600" text-anchor="start"  font-family="system-ui,-apple-system,sans-serif">Results</text>
<text x="510" y="165" fill="#555" font-size="9" font-weight="normal" text-anchor="start"  font-family="system-ui,-apple-system,sans-serif">Always visible</text>
<rect x="492" y="187" width="12" height="12" rx="3" fill="#42a5f5" fill-opacity="0.85"/>
<text x="510" y="197" fill="#e0e0e0" font-size="11" font-weight="600" text-anchor="start"  font-family="system-ui,-apple-system,sans-serif">Images</text>
<text x="510" y="209" fill="#555" font-size="9" font-weight="normal" text-anchor="start"  font-family="system-ui,-apple-system,sans-serif">Toggle: Show images</text>
<rect x="492" y="231" width="12" height="12" rx="3" fill="#ff9800" fill-opacity="0.85"/>
<text x="510" y="241" fill="#e0e0e0" font-size="11" font-weight="600" text-anchor="start"  font-family="system-ui,-apple-system,sans-serif">Products</text>
<text x="510" y="253" fill="#555" font-size="9" font-weight="normal" text-anchor="start"  font-family="system-ui,-apple-system,sans-serif">Toggle: Hide products</text>
</svg>