<svg width="760" height="480" xmlns="http://www.w3.org/2000/svg">
<rect width="760" height="480" fill="#12121e" rx="12"/>
<text x="380" y="28" fill="#00bcd4" font-size="14" font-weight="600" text-anchor="middle"  font-family="system-ui,-apple-system,sans-serif">What SearchLens filters on Google Search</text>
<rect x="10" y="44" width="420" height="12" rx="4" fill="#888" fill-opacity="0.35" stroke="#888" stroke-width="1.5" stroke-opacity="0.6"/>
<rect x="10" y="62" width="420" height="58" rx="4" fill="#ff5252" fill-opacity="0.18" stroke="#ff5252" stroke-width="1.5" stroke-opacity="0.6"/>
<rect x="20" y="68" width="200" height="9" rx="3" fill="#ff5252" fill-opacity="0.45"/>
<rect x="20" y="80" width="340" height="6" rx="3" fill="#ff5252" fill-opacity="0.2"/>
<rect x="20" y="94" width="200" height="9" rx="3" fill="#ff5252" fill-opacity="0.45"/>
<rect x="20" y="106" width="340" height="6" rx="3" fill="#ff5252" fill-opacity="0.2"/>
<rect x="10" y="132" width="420" height="48" rx="4" fill="#1e2d1e" fill-opacity="0.5" stroke="#4caf50" stroke-width="1" stroke-opacity="0.4"/>
<rect x="20" y="140" width="180" height="9" rx="3" fill="#4caf50" fill-opacity="0.5"/>
<rect x="20" y="154" width="320" height="6" rx="3" fill="#2e3d2e" fill-opacity="0.8"/>
<rect x="20" y="165" width="220" height="6" rx="3" fill="#2e3d2e" fill-opacity="0.8"/>
<rect x="10" y="188" width="420" height="48" rx="4" fill="#1e2d1e" fill-opacity="0.5" stroke="#4caf50" stroke-width="1" stroke-opacity="0.4"/>
<rect x="20" y="196" width="180" height="9" rx="3" fill="#4caf50" fill-opacity="0.5"/>
<rect x="20" y="210" width="320" height="6" rx="3" fill="#2e3d2e" fill-opacity="0.8"/>
<rect x="20" y="221" width="220" height="6" rx="3" fill="#2e3d2e" fill-opacity="0.8"/>
<rect x="10" y="244" width="420" height="48" rx="4" fill="#1e2d1e" fill-opacity="0.5" stroke="#4caf50" stroke-width="1" stroke-opacity="0.4"/>
<rect x="20" y="252" width="180" height="9" rx="3" fill="#4caf50" fill-opacity="0.5"/>
<rect x="20" y="266" width="320" height="6" rx="3" fill="#2e3d2e" fill-opacity="0.8"/>
<rect x="20" y="277" width="220" height="6" rx="3" fill="#2e3d2e" fill-opacity="0.8"/>
<rect x="10" y="302" width="420" height="50" rx="4" fill="#42a5f5" fill-opacity="0.18" stroke="#42a5f5" stroke-width="1.5" stroke-opacity="0.6"/>
<rect x="20" y="312" width="70" height="32" rx="3" fill="#42a5f5" fill-opacity="0.25"/>
<rect x="100" y="312" width="70" height="32" rx="3" fill="#42a5f5" fill-opacity="0.25"/>
<rect x="180" y="312" width="70" height="32" rx="3" fill="#42a5f5" fill-opacity="0.25"/>
<rect x="260" y="312" width="70" height="32" rx="3" fill="#42a5f5" fill-opacity="0.25"/>
<rect x="340" y="312" width="70" height="32" rx="3" fill="#42a5f5" fill-opacity="0.25"/>
<rect x="10" y="360" width="420" height="68" rx="4" fill="#ff9800" fill-opacity="0.18" stroke="#ff9800" stroke-width="1.5" stroke-opacity="0.6"/>
<rect x="18" y="370" width="92" height="50" rx="3" fill="#ff9800" fill-opacity="0.18"/>
<rect x="24" y="376" width="80" height="26" rx="2" fill="#ff9800" fill-opacity="0.12"/>
<rect x="24" y="406" width="56" height="6" rx="2" fill="#ff9800" fill-opacity="0.28"/>
<rect x="120" y="370" width="92" height="50" rx="3" fill="#ff9800" fill-opacity="0.18"/>
<rect x="126" y="376" width="80" height="26" rx="2" fill="#ff9800" fill-opacity="0.12"/>
<rect x="126" y="406" width="56" height="6" rx="2" fill="#ff9800" fill-opacity="0.28"/>
<rect x="222" y="370" width="92" height="50" rx="3" fill="#ff9800" fill-opacity="0.18"/>
<rect x="228" y="376" width="80" height="26" rx="2" fill="#ff9800" fill-opacity="0.12"/>
<rect x="228" y="406" width="56" height="6" rx="2" fill="#ff9800" fill-opacity="0.28"/>
<rect x="324" y="370" width="92" height="50" rx="3" fill="#ff9800" fill-opacity="0.18"/>
<rect x="330" y="376" width="80" height="26" rx="2" fill="#ff9800" fill-opacity="0.12"/>
<rect x="330" y="406" width="56" height="6" rx="2" fill="#ff9800" fill-opacity="0.28"/>
<text x="460" y="40" fill="#555" font-size="9" font-weight="600" text-anchor="start" letter-spacing="1" font-family="system-ui,-apple-system,sans-serif">FILTER ZONES</text>
<rect x="460" y="45" width="284" height="1" fill="#2a2a3e"/>
<rect x="460" y="56" width="4" height="38" rx="2" fill="#888" fill-opacity="0.9"/>
<text x="474" y="71" fill="#e0e0e0" font-size="12" font-weight="600" text-anchor="start"  font-family="system-ui,-apple-system,sans-serif">slim_appbar</text>
<text x="474" y="86" fill="#777" font-size="10" font-weight="normal" text-anchor="start"  font-family="system-ui,-apple-system,sans-serif">Always hidden — empty UI divider</text>
<rect x="460" y="110" width="4" height="38" rx="2" fill="#ff5252" fill-opacity="0.9"/>
<text x="474" y="125" fill="#e0e0e0" font-size="12" font-weight="600" text-anchor="start"  font-family="system-ui,-apple-system,sans-serif">Sponsored</text>
<text x="474" y="140" fill="#777" font-size="10" font-weight="normal" text-anchor="start"  font-family="system-ui,-apple-system,sans-serif">"Hide sponsored" toggle</text>
<rect x="460" y="164" width="4" height="38" rx="2" fill="#4caf50" fill-opacity="0.9"/>
<text x="474" y="179" fill="#e0e0e0" font-size="12" font-weight="600" text-anchor="start"  font-family="system-ui,-apple-system,sans-serif">Results</text>
<text x="474" y="194" fill="#777" font-size="10" font-weight="normal" text-anchor="start"  font-family="system-ui,-apple-system,sans-serif">Organic results — always visible</text>
<rect x="460" y="218" width="4" height="38" rx="2" fill="#42a5f5" fill-opacity="0.9"/>
<text x="474" y="233" fill="#e0e0e0" font-size="12" font-weight="600" text-anchor="start"  font-family="system-ui,-apple-system,sans-serif">Images</text>
<text x="474" y="248" fill="#777" font-size="10" font-weight="normal" text-anchor="start"  font-family="system-ui,-apple-system,sans-serif">"Show images" toggle</text>
<rect x="460" y="272" width="4" height="38" rx="2" fill="#ff9800" fill-opacity="0.9"/>
<text x="474" y="287" fill="#e0e0e0" font-size="12" font-weight="600" text-anchor="start"  font-family="system-ui,-apple-system,sans-serif">Products</text>
<text x="474" y="302" fill="#777" font-size="10" font-weight="normal" text-anchor="start"  font-family="system-ui,-apple-system,sans-serif">"Hide products" toggle</text>
</svg>